<svg xmlns="http://www.w3.org/2000/svg" version="1.2" overflow="visible" preserveAspectRatio="none" viewBox="0 0 650 67" width="650" height="67"><g transform="translate(0, 0)"><defs/><g style="transform: translate(0px, -548.283px);"><path d="M0 615.28333333333 C0 615.28333333333 602.64341114428 615.28333333333 602.64341114428 615.28333333333 C602.64341114428 615.28333333333 650 548.28333333333 650 548.28333333333 C650 548.28333333333 -1.6385391107902e-14 548.28333333333 -1.6385391107902e-14 548.28333333333 C-1.6385391107902e-14 548.28333333333 0 615.28333333333 0 615.28333333333 Z" style="stroke: rgb(102, 102, 102); stroke-width: 0; stroke-linecap: butt; stroke-linejoin: miter; fill: rgb(122, 74, 130);" vector-effect="non-scaling-stroke"/><path d="M0 615.28333333333 C0 615.28333333333 602.64341114428 615.28333333333 602.64341114428 615.28333333333 C602.64341114428 615.28333333333 650 548.28333333333 650 548.28333333333 C650 548.28333333333 -1.6385391107902e-14 548.28333333333 -1.6385391107902e-14 548.28333333333 C-1.6385391107902e-14 548.28333333333 0 615.28333333333 0 615.28333333333 Z" fill="none" stroke="transparent" stroke-width="8" vector-effect="non-scaling-stroke"/></g></g></svg>